<?xml version="1.0" standalone="no"?>
<!DOCTYPE svg PUBLIC "-//W3C//DTD SVG 20010904//EN"
 "http://www.w3.org/TR/2001/REC-SVG-20010904/DTD/svg10.dtd">
<svg version="1.0" xmlns="http://www.w3.org/2000/svg"
 width="1920.000000pt" height="1920.000000pt" viewBox="0 0 1920.000000 1920.000000"
 preserveAspectRatio="xMidYMid meet">
<metadata>
Created by potrace 1.11, written by Peter Selinger 2001-2013
</metadata>
<g transform="translate(0.000000,1920.000000) scale(0.100000,-0.100000)"
fill="#000000" stroke="none">
<path d="M9240 14454 c-294 -26 -544 -67 -815 -134 -1245 -307 -2324 -1102
-2989 -2202 -361 -599 -582 -1247 -673 -1978 -26 -210 -26 -870 0 -1080 29
-229 64 -419 117 -635 307 -1245 1102 -2324 2202 -2989 599 -361 1247 -582
1978 -673 210 -26 870 -26 1080 0 229 29 419 64 635 117 1245 307 2324 1102
2989 2202 361 599 582 1247 673 1978 15 118 18 219 18 540 0 321 -3 422 -18
540 -76 608 -237 1145 -499 1663 -635 1256 -1797 2180 -3163 2517 -423 105
-650 132 -1125 135 -201 1 -385 1 -410 -1z"/>
</g>
</svg>
